<svg xmlns="http://www.w3.org/2000/svg" viewBox="0 0 600 600" preserveAspectRatio="xMidYMid slice">
  <rect width="600" height="600" fill="#1a1814"/>
  <rect x="80" y="80" width="440" height="280" fill="#f3ede1" rx="6"/>
  <rect x="80" y="80" width="440" height="36" fill="#ebe3d4" rx="6"/>
  <text x="120" y="240" font-family="Georgia, serif" font-size="48" fill="#1a1814" font-style="italic">AI 4 All</text>
  <g fill="#3a342a">
    <circle cx="120" cy="450" r="25"/><path d="M 90 540 Q 90 490 120 490 Q 150 490 150 540 Z"/>
    <circle cx="200" cy="460" r="25"/><path d="M 170 550 Q 170 500 200 500 Q 230 500 230 550 Z"/>
    <circle cx="280" cy="450" r="25"/><path d="M 250 540 Q 250 490 280 490 Q 310 490 310 540 Z"/>
    <circle cx="360" cy="460" r="25"/><path d="M 330 550 Q 330 500 360 500 Q 390 500 390 550 Z"/>
    <circle cx="440" cy="450" r="25"/><path d="M 410 540 Q 410 490 440 490 Q 470 490 470 540 Z"/>
  </g>
  <circle cx="500" cy="120" r="30" fill="#d94f2c"/>
</svg>
