<svg xmlns="http://www.w3.org/2000/svg" viewBox="0 0 600 600" preserveAspectRatio="xMidYMid slice">
  <defs><linearGradient id="e1" x1="0" y1="0" x2="1" y2="1"><stop offset="0%" stop-color="#f4a98e"/><stop offset="100%" stop-color="#d94f2c"/></linearGradient></defs>
  <rect width="600" height="600" fill="url(#e1)"/>
  <ellipse cx="300" cy="380" rx="180" ry="40" fill="#1a1814" opacity="0.5"/>
  <g fill="#1a1814">
    <circle cx="180" cy="280" r="35"/><path d="M 130 380 Q 130 320 180 320 Q 230 320 230 380 Z"/>
    <circle cx="300" cy="240" r="38"/><path d="M 245 350 Q 245 290 300 290 Q 355 290 355 350 Z"/>
    <circle cx="420" cy="280" r="35"/><path d="M 370 380 Q 370 320 420 320 Q 470 320 470 380 Z"/>
  </g>
  <rect x="240" y="385" width="40" height="40" fill="#fde047" transform="rotate(-5 260 405)"/>
  <rect x="290" y="390" width="40" height="40" fill="#a7f3d0" transform="rotate(8 310 410)"/>
  <rect x="340" y="385" width="40" height="40" fill="#bfdbfe" transform="rotate(-3 360 405)"/>
</svg>
