<svg xmlns="http://www.w3.org/2000/svg" viewBox="0 0 800 500" preserveAspectRatio="xMidYMid slice">
  <defs><linearGradient id="g1" x1="0" y1="0" x2="1" y2="1"><stop offset="0%" stop-color="#1a1814"/><stop offset="100%" stop-color="#3a342a"/></linearGradient></defs>
  <rect width="800" height="500" fill="url(#g1)"/>
  <g stroke="#d94f2c" stroke-width="1" fill="none" opacity="0.6">
    <line x1="200" y1="150" x2="400" y2="120"/><line x1="200" y1="150" x2="400" y2="200"/><line x1="200" y1="150" x2="400" y2="280"/>
    <line x1="200" y1="250" x2="400" y2="120"/><line x1="200" y1="250" x2="400" y2="200"/><line x1="200" y1="250" x2="400" y2="280"/>
    <line x1="200" y1="350" x2="400" y2="200"/><line x1="200" y1="350" x2="400" y2="280"/><line x1="200" y1="350" x2="400" y2="380"/>
    <line x1="400" y1="120" x2="600" y2="200"/><line x1="400" y1="200" x2="600" y2="200"/><line x1="400" y1="280" x2="600" y2="200"/><line x1="400" y1="380" x2="600" y2="300"/>
  </g>
  <g fill="#d94f2c">
    <circle cx="200" cy="150" r="8"/><circle cx="200" cy="250" r="8"/><circle cx="200" cy="350" r="8"/>
    <circle cx="400" cy="120" r="8"/><circle cx="400" cy="200" r="8"/><circle cx="400" cy="280" r="8"/><circle cx="400" cy="380" r="8"/>
    <circle cx="600" cy="200" r="10" fill="#f4a98e"/><circle cx="600" cy="300" r="10" fill="#f4a98e"/>
  </g>
  <text x="60" y="80" font-family="Georgia, serif" font-size="42" fill="#f3ede1" font-style="italic">AI for All</text>
</svg>
